# xmcd
#
# Track frame offsets: 
#        150
#        19488
#        36887
#        55117
#        73072
#        94422
#        112620
#        134336
#        153451
#        169264
#        190475
#        209790
#        233546
#
# Disc length: 3324 seconds
#
# Revision: 0
# Processed by: cddbd v1.5.2PL0 Copyright (c) Steve Scherf et al.
# Submitted via: ExactAudioCopy v0.95a4
#
DISCID=ba0cfa0d
DTITLE=Deleuran - Don't touch my soul
DYEAR=2004
DGENRE=Easy Listening
TTITLE0=Coco and the love
TTITLE1=Tilted my bed
TTITLE2=Hunting for love
TTITLE3=Don't touch my soul
TTITLE4=Poor old boy from Omaha
TTITLE5=Young child lullaby
TTITLE6=Little Pearl
TTITLE7=Miss Mt. Canigou
TTITLE8=Cool cool business
TTITLE9=The invisible touch
TTITLE10=Running out blues
TTITLE11=Fat, fat huskydog
TTITLE12=Tilted my bed (disco version)
EXTD=
EXTT0=
EXTT1=
EXTT2=
EXTT3=
EXTT4=
EXTT5=
EXTT6=
EXTT7=
EXTT8=
EXTT9=
EXTT10=
EXTT11=
EXTT12=
PLAYORDER=
